<svg id="Layer_3" data-name="Layer 3" xmlns="http://www.w3.org/2000/svg" viewBox="0 0 167.89 169.12"><defs><style>.cls-1{fill:#2041e0;}</style></defs><path class="cls-1" d="M92.23,89.78c-6.44,4-15.06,6.06-23.79,5.62-7.34-.36-13.36-3-17-7.34-3.2-3.88-4.45-9-3.6-14.89a19,19,0,0,1,1.72-5.64l.12-.25a37.76,37.76,0,1,1,36.88,55l.4,4.59A42.36,42.36,0,1,0,45.61,65.18l-.16.33a24.17,24.17,0,0,0-2.14,7c-1,7.18.56,13.57,4.61,18.49,4.43,5.38,11.64,8.58,20.29,9,10.53.53,21-2.34,28.43-7.62Z"/><path class="cls-1" d="M101,95c-4.19,3.64-13.92,10.24-30.08,11.14-18.1,1-25.63-4.88-25.71-4.94L43.76,103l1.48-1.77-3,3.54c.32.27,7.55,6.11,24.52,6.11,1.39,0,2.85,0,4.37-.12,19.53-1.09,30.27-9.61,34-13.25Z"/><path class="cls-1" d="M108.86,99.76a33.89,33.89,0,0,1-9,8.2c-12.24,7.9-27.81,8.92-38.72,8.37l-.23,4.61c1.83.09,3.6.13,5.31.13,30.73,0,43.16-14,46.62-19l-4-2.35"/><circle class="cls-1" cx="107.68" cy="78.62" r="3.69"/></svg>