<svg width="64" height="89" viewBox="0 0 64 89" fill="none" xmlns="http://www.w3.org/2000/svg">
<mask id="mask0" mask-type="alpha" maskUnits="userSpaceOnUse" x="13" y="58" width="38" height="18">
<path fill-rule="evenodd" clip-rule="evenodd" d="M28.768 59.5995L27.3405 61.0161L13.9687 74.2924C13.6156 74.643 13.6156 75.2101 13.9687 75.5607C14.1452 75.7365 14.3766 75.8239 14.6074 75.8239C14.8388 75.8239 15.0701 75.7365 15.2467 75.5607L28.6185 62.2849L30.0454 60.8684C31.1722 59.7491 33.0069 59.7485 34.1361 60.8684L35.563 62.2849L48.9342 75.5601C49.1114 75.7359 49.3421 75.8233 49.5729 75.8233C49.8049 75.8233 50.0357 75.7359 50.2122 75.5601C50.5653 75.2095 50.5653 74.6424 50.2122 74.2918L36.841 61.0161L35.4135 59.5995C34.4971 58.6896 33.2932 58.235 32.0899 58.235C30.8866 58.235 29.6833 58.6896 28.768 59.5995Z" fill="white"/>
</mask>
<g mask="url(#mask0)">
<path fill-rule="evenodd" clip-rule="evenodd" d="M28.768 59.5995L27.3405 61.0161L13.9687 74.2924C13.6156 74.643 13.6156 75.2101 13.9687 75.5607C14.1452 75.7365 14.3766 75.8239 14.6074 75.8239C14.8388 75.8239 15.0701 75.7365 15.2467 75.5607L28.6185 62.2849L30.0454 60.8684C31.1722 59.7491 33.0069 59.7485 34.1361 60.8684L35.563 62.2849L48.9342 75.5601C49.1114 75.7359 49.3421 75.8233 49.5729 75.8233C49.8049 75.8233 50.0357 75.7359 50.2122 75.5601C50.5653 75.2095 50.5653 74.6424 50.2122 74.2918L36.841 61.0161L35.4135 59.5995C34.4971 58.6896 33.2932 58.235 32.0899 58.235C30.8866 58.235 29.6833 58.6896 28.768 59.5995Z" fill="white"/>
</g>
<mask id="mask1" mask-type="alpha" maskUnits="userSpaceOnUse" x="0" y="34" width="26" height="49">
<path fill-rule="evenodd" clip-rule="evenodd" d="M1.15144 34.3286C0.976491 34.5031 0.887803 34.7309 0.884766 34.9593V34.9823C0.887803 35.2114 0.976491 35.4392 1.15144 35.6137L17.9074 52.327C17.911 52.3301 17.9147 52.3301 17.9177 52.3337C18.657 53.0759 19.0646 54.0593 19.0646 55.1063C19.0646 56.0473 18.7268 56.9544 18.1139 57.6663L5.61681 70.1316C5.61681 70.1322 5.6156 70.1322 5.61499 70.1329C2.77941 72.9328 1.15994 76.6227 1.00929 80.5769C1.002 80.6247 0.994714 80.6732 0.994714 80.7241V81.1816C0.994714 81.6833 1.40231 82.0904 1.90528 82.0904C2.40886 82.0904 2.81707 81.6833 2.81707 81.1816C2.81707 77.488 4.26584 74.0228 6.89732 71.4253C6.89793 71.4246 6.89854 71.4228 6.89975 71.4216C6.90036 71.4216 6.90097 71.4216 6.90097 71.4216L25.1932 53.1759C25.5491 52.8209 25.5491 52.2458 25.1932 51.8908C24.8372 51.5357 24.2601 51.5357 23.9041 51.8908L20.8772 54.91C20.828 53.448 20.2406 52.0792 19.1976 51.0395C19.1946 51.0359 19.1891 51.0346 19.1855 51.0316L2.44045 34.3286C2.26247 34.151 2.0292 34.062 1.79594 34.062C1.56268 34.062 1.32942 34.151 1.15144 34.3286Z" fill="white"/>
</mask>
<g mask="url(#mask1)">
<path fill-rule="evenodd" clip-rule="evenodd" d="M1.15144 34.3286C0.976491 34.5031 0.887803 34.7309 0.884766 34.9593V34.9823C0.887803 35.2114 0.976491 35.4392 1.15144 35.6137L17.9074 52.327C17.911 52.3301 17.9147 52.3301 17.9177 52.3337C18.657 53.0759 19.0646 54.0593 19.0646 55.1063C19.0646 56.0473 18.7268 56.9544 18.1139 57.6663L5.61681 70.1316C5.61681 70.1322 5.6156 70.1322 5.61499 70.1329C2.77941 72.9328 1.15994 76.6227 1.00929 80.5769C1.002 80.6247 0.994714 80.6732 0.994714 80.7241V81.1816C0.994714 81.6833 1.40231 82.0904 1.90528 82.0904C2.40886 82.0904 2.81707 81.6833 2.81707 81.1816C2.81707 77.488 4.26584 74.0228 6.89732 71.4253C6.89793 71.4246 6.89854 71.4228 6.89975 71.4216C6.90036 71.4216 6.90097 71.4216 6.90097 71.4216L25.1932 53.1759C25.5491 52.8209 25.5491 52.2458 25.1932 51.8908C24.8372 51.5357 24.2601 51.5357 23.9041 51.8908L20.8772 54.91C20.828 53.448 20.2406 52.0792 19.1976 51.0395C19.1946 51.0359 19.1891 51.0346 19.1855 51.0316L2.44045 34.3286C2.26247 34.151 2.0292 34.062 1.79594 34.062C1.56268 34.062 1.32942 34.151 1.15144 34.3286Z" fill="white"/>
</g>
<mask id="mask2" mask-type="alpha" maskUnits="userSpaceOnUse" x="3" y="0" width="58" height="48">
<path fill-rule="evenodd" clip-rule="evenodd" d="M32.1119 0C23.4829 0 17.4561 7.08718 17.4561 17.2349L17.4555 17.9593C17.4446 21.273 17.4343 25.3135 18.8591 28.0522C17.4997 28.949 16.6389 30.4883 16.6389 32.1475C16.6389 34.8555 18.8519 37.0584 21.5708 37.0584C21.8002 37.0584 21.9867 37.244 21.9867 37.4718V38.6001C21.9552 38.7966 21.865 38.9762 21.7228 39.1178C21.4504 39.389 21.0521 39.4583 20.7137 39.3293L19.2259 37.8473L9.33371 28.0004C9.33311 27.9998 9.33311 27.9997 9.3325 27.9991C9.33129 27.9985 9.33129 27.9979 9.33068 27.9973C6.70797 25.4123 5.26435 21.9655 5.26435 18.292C5.26435 17.793 4.8576 17.388 4.35581 17.388C3.85464 17.388 3.44849 17.793 3.44849 18.292V18.7477C3.44849 18.7977 3.45514 18.8459 3.46301 18.8935C3.61312 22.8255 5.22622 26.4942 8.04989 29.2787V29.2793L8.05292 29.2823L17.9421 39.1262L18.8973 40.0773C18.9421 40.193 19.0068 40.3027 19.1007 40.3967C19.2574 40.5522 19.4317 40.6788 19.6127 40.7903L25.6105 46.7619C25.7879 46.9385 26.0197 47.0265 26.2527 47.0265C26.4846 47.0265 26.717 46.9385 26.8944 46.7619C27.2491 46.4087 27.2491 45.8367 26.8944 45.4835L22.2881 40.897C22.546 40.7692 22.7923 40.6101 23.0072 40.3967C23.3922 40.0122 23.6421 39.5337 23.7511 39.0075C23.7814 38.9165 23.8025 38.8201 23.8025 38.7188V37.4718C23.8025 36.3092 22.8976 35.363 21.7536 35.2689C21.6949 35.2569 21.6338 35.2503 21.5708 35.2503C19.853 35.2503 18.4554 33.8586 18.4554 32.1475C18.4554 30.871 19.2629 29.7066 20.4644 29.251C20.7295 29.1509 20.9317 28.9327 21.0116 28.6627C21.0921 28.3921 21.0406 28.1004 20.8735 27.872C19.2483 25.6619 19.2617 21.2127 19.2707 17.9648L19.272 17.2349C19.272 9.80476 23.2905 1.80811 32.1119 1.80811C40.934 1.80811 44.9513 9.80476 44.9513 17.2349L44.9532 18.0027C44.9628 21.2284 44.9774 25.6462 43.3709 27.8418C43.2027 28.0727 43.153 28.3692 43.2384 28.6416C43.3225 28.914 43.5325 29.131 43.8019 29.2262C45.0446 29.665 45.8792 30.8385 45.8792 32.1475C45.8792 33.8586 44.4816 35.2503 42.7632 35.2503C42.7003 35.2503 42.6391 35.2569 42.5798 35.2689C41.4364 35.363 40.5321 36.3092 40.5321 37.4718V38.7188C40.5321 38.8183 40.5527 38.9111 40.5818 39.0003C40.6895 39.5288 40.9401 40.0098 41.3275 40.3967C41.5417 40.6101 41.7875 40.7692 42.0447 40.897L37.4391 45.4835C37.0844 45.8367 37.0844 46.4087 37.4391 46.7619C37.6164 46.9385 37.8489 47.0265 38.0807 47.0265C38.3131 47.0265 38.5456 46.9385 38.7229 46.7619L44.7207 40.7903C44.9023 40.6794 45.0766 40.5522 45.2334 40.3967C45.3272 40.3027 45.392 40.193 45.4368 40.0773L46.3913 39.1268L55.7188 29.8392V29.8386C58.5419 27.0535 60.1556 23.3861 60.3063 19.4534C60.3136 19.4058 60.3208 19.3576 60.3208 19.3076V18.8519C60.3208 18.3529 59.9141 17.9479 59.4129 17.9479C58.9117 17.9479 58.5044 18.3529 58.5044 18.8519C58.5044 22.5254 57.0601 25.9723 54.438 28.5573C54.4374 28.5579 54.4374 28.5591 54.4362 28.5597C54.4362 28.5597 54.4356 28.5603 54.435 28.5609L45.1075 37.8485L43.6203 39.3293C43.2826 39.4583 42.8837 39.3884 42.6119 39.1184C42.4697 38.9768 42.3801 38.7972 42.348 38.6019V37.4718C42.348 37.244 42.5344 37.0584 42.7632 37.0584C45.4828 37.0584 47.6957 34.8555 47.6957 32.1475C47.6957 30.4437 46.8035 28.8863 45.3956 27.9991C46.792 25.2779 46.7799 21.2784 46.769 17.9967L46.7672 17.2349C46.7672 7.08718 40.7409 0 32.1119 0Z" fill="white"/>
</mask>
<g mask="url(#mask2)">
<path fill-rule="evenodd" clip-rule="evenodd" d="M32.1119 0C23.4829 0 17.4561 7.08718 17.4561 17.2349L17.4555 17.9593C17.4446 21.273 17.4343 25.3135 18.8591 28.0522C17.4997 28.949 16.6389 30.4883 16.6389 32.1475C16.6389 34.8555 18.8519 37.0584 21.5708 37.0584C21.8002 37.0584 21.9867 37.244 21.9867 37.4718V38.6001C21.9552 38.7966 21.865 38.9762 21.7228 39.1178C21.4504 39.389 21.0521 39.4583 20.7137 39.3293L19.2259 37.8473L9.33371 28.0004C9.33311 27.9998 9.33311 27.9997 9.3325 27.9991C9.33129 27.9985 9.33129 27.9979 9.33068 27.9973C6.70797 25.4123 5.26435 21.9655 5.26435 18.292C5.26435 17.793 4.8576 17.388 4.35581 17.388C3.85464 17.388 3.44849 17.793 3.44849 18.292V18.7477C3.44849 18.7977 3.45514 18.8459 3.46301 18.8935C3.61312 22.8255 5.22622 26.4942 8.04989 29.2787V29.2793L8.05292 29.2823L17.9421 39.1262L18.8973 40.0773C18.9421 40.193 19.0068 40.3027 19.1007 40.3967C19.2574 40.5522 19.4317 40.6788 19.6127 40.7903L25.6105 46.7619C25.7879 46.9385 26.0197 47.0265 26.2527 47.0265C26.4846 47.0265 26.717 46.9385 26.8944 46.7619C27.2491 46.4087 27.2491 45.8367 26.8944 45.4835L22.2881 40.897C22.546 40.7692 22.7923 40.6101 23.0072 40.3967C23.3922 40.0122 23.6421 39.5337 23.7511 39.0075C23.7814 38.9165 23.8025 38.8201 23.8025 38.7188V37.4718C23.8025 36.3092 22.8976 35.363 21.7536 35.2689C21.6949 35.2569 21.6338 35.2503 21.5708 35.2503C19.853 35.2503 18.4554 33.8586 18.4554 32.1475C18.4554 30.871 19.2629 29.7066 20.4644 29.251C20.7295 29.1509 20.9317 28.9327 21.0116 28.6627C21.0921 28.3921 21.0406 28.1004 20.8735 27.872C19.2483 25.6619 19.2617 21.2127 19.2707 17.9648L19.272 17.2349C19.272 9.80476 23.2905 1.80811 32.1119 1.80811C40.934 1.80811 44.9513 9.80476 44.9513 17.2349L44.9532 18.0027C44.9628 21.2284 44.9774 25.6462 43.3709 27.8418C43.2027 28.0727 43.153 28.3692 43.2384 28.6416C43.3225 28.914 43.5325 29.131 43.8019 29.2262C45.0446 29.665 45.8792 30.8385 45.8792 32.1475C45.8792 33.8586 44.4816 35.2503 42.7632 35.2503C42.7003 35.2503 42.6391 35.2569 42.5798 35.2689C41.4364 35.363 40.5321 36.3092 40.5321 37.4718V38.7188C40.5321 38.8183 40.5527 38.9111 40.5818 39.0003C40.6895 39.5288 40.9401 40.0098 41.3275 40.3967C41.5417 40.6101 41.7875 40.7692 42.0447 40.897L37.4391 45.4835C37.0844 45.8367 37.0844 46.4087 37.4391 46.7619C37.6164 46.9385 37.8489 47.0265 38.0807 47.0265C38.3131 47.0265 38.5456 46.9385 38.7229 46.7619L44.7207 40.7903C44.9023 40.6794 45.0766 40.5522 45.2334 40.3967C45.3272 40.3027 45.392 40.193 45.4368 40.0773L46.3913 39.1268L55.7188 29.8392V29.8386C58.5419 27.0535 60.1556 23.3861 60.3063 19.4534C60.3136 19.4058 60.3208 19.3576 60.3208 19.3076V18.8519C60.3208 18.3529 59.9141 17.9479 59.4129 17.9479C58.9117 17.9479 58.5044 18.3529 58.5044 18.8519C58.5044 22.5254 57.0601 25.9723 54.438 28.5573C54.4374 28.5579 54.4374 28.5591 54.4362 28.5597C54.4362 28.5597 54.4356 28.5603 54.435 28.5609L45.1075 37.8485L43.6203 39.3293C43.2826 39.4583 42.8837 39.3884 42.6119 39.1184C42.4697 38.9768 42.3801 38.7972 42.348 38.6019V37.4718C42.348 37.244 42.5344 37.0584 42.7632 37.0584C45.4828 37.0584 47.6957 34.8555 47.6957 32.1475C47.6957 30.4437 46.8035 28.8863 45.3956 27.9991C46.792 25.2779 46.7799 21.2784 46.769 17.9967L46.7672 17.2349C46.7672 7.08718 40.7409 0 32.1119 0Z" fill="white"/>
</g>
<mask id="mask3" mask-type="alpha" maskUnits="userSpaceOnUse" x="21" y="31" width="7" height="4">
<path fill-rule="evenodd" clip-rule="evenodd" d="M21.4183 31.9248C21.3268 32.2365 21.516 32.5606 21.8401 32.6485L27.1185 34.0772C27.1741 34.0924 27.2296 34.0994 27.2846 34.0994C27.5507 34.0994 27.7955 33.9301 27.8718 33.6722C27.9634 33.3611 27.7741 33.0376 27.45 32.9491L22.1722 31.5198C22.1173 31.5052 22.0623 31.4981 22.0074 31.4981C21.7419 31.4981 21.4946 31.6657 21.4183 31.9248Z" fill="white"/>
</mask>
<g mask="url(#mask3)">
<path fill-rule="evenodd" clip-rule="evenodd" d="M21.4183 31.9248C21.3268 32.2365 21.516 32.5606 21.8401 32.6485L27.1185 34.0772C27.1741 34.0924 27.2296 34.0994 27.2846 34.0994C27.5507 34.0994 27.7955 33.9301 27.8718 33.6722C27.9634 33.3611 27.7741 33.0376 27.45 32.9491L22.1722 31.5198C22.1173 31.5052 22.0623 31.4981 22.0074 31.4981C21.7419 31.4981 21.4946 31.6657 21.4183 31.9248Z" fill="white"/>
</g>
<mask id="mask4" mask-type="alpha" maskUnits="userSpaceOnUse" x="36" y="31" width="7" height="4">
<path fill-rule="evenodd" clip-rule="evenodd" d="M41.769 31.5198L36.4912 32.9491C36.1665 33.0376 35.9773 33.3611 36.0682 33.6722C36.1451 33.9301 36.3893 34.0994 36.6554 34.0994C36.7104 34.0994 36.7665 34.0924 36.8221 34.0772L42.1005 32.6485C42.424 32.5606 42.6132 32.2365 42.5223 31.9248C42.4454 31.6669 42.2 31.4981 41.9338 31.4981C41.8795 31.4981 41.824 31.5052 41.769 31.5198Z" fill="white"/>
</mask>
<g mask="url(#mask4)">
<path fill-rule="evenodd" clip-rule="evenodd" d="M41.769 31.5198L36.4912 32.9491C36.1665 33.0376 35.9773 33.3611 36.0682 33.6722C36.1451 33.9301 36.3893 34.0994 36.6554 34.0994C36.7104 34.0994 36.7665 34.0924 36.8221 34.0772L42.1005 32.6485C42.424 32.5606 42.6132 32.2365 42.5223 31.9248C42.4454 31.6669 42.2 31.4981 41.9338 31.4981C41.8795 31.4981 41.824 31.5052 41.769 31.5198Z" fill="white"/>
</g>
<mask id="mask5" mask-type="alpha" maskUnits="userSpaceOnUse" x="3" y="14" width="3" height="3">
<path fill-rule="evenodd" clip-rule="evenodd" d="M3.7305 14.5533C3.68564 14.5981 3.64718 14.6494 3.60808 14.7013C3.57668 14.7526 3.54463 14.8103 3.5254 14.868C3.49976 14.9257 3.47989 14.9834 3.46771 15.0468C3.4549 15.1109 3.44849 15.175 3.44849 15.2327C3.44849 15.4891 3.55104 15.739 3.7305 15.9127C3.90933 16.0916 4.15994 16.1947 4.40927 16.1947C4.66629 16.1947 4.90985 16.0916 5.08932 15.9127C5.26815 15.7333 5.37134 15.4891 5.37134 15.2327C5.37134 15.175 5.36493 15.1109 5.35147 15.0468C5.33929 14.9834 5.31942 14.9257 5.30148 14.868C5.2752 14.8103 5.24315 14.7526 5.21046 14.7013C5.17264 14.6494 5.13419 14.5981 5.08932 14.5533C4.91306 14.3738 4.66117 14.2841 4.40991 14.2841C4.15802 14.2841 3.90677 14.3738 3.7305 14.5533Z" fill="white"/>
</mask>
<g mask="url(#mask5)">
<path fill-rule="evenodd" clip-rule="evenodd" d="M3.7305 14.5533C3.68564 14.5981 3.64718 14.6494 3.60808 14.7013C3.57668 14.7526 3.54463 14.8103 3.5254 14.868C3.49976 14.9257 3.47989 14.9834 3.46771 15.0468C3.4549 15.1109 3.44849 15.175 3.44849 15.2327C3.44849 15.4891 3.55104 15.739 3.7305 15.9127C3.90933 16.0916 4.15994 16.1947 4.40927 16.1947C4.66629 16.1947 4.90985 16.0916 5.08932 15.9127C5.26815 15.7333 5.37134 15.4891 5.37134 15.2327C5.37134 15.175 5.36493 15.1109 5.35147 15.0468C5.33929 14.9834 5.31942 14.9257 5.30148 14.868C5.2752 14.8103 5.24315 14.7526 5.21046 14.7013C5.17264 14.6494 5.13419 14.5981 5.08932 14.5533C4.91306 14.3738 4.66117 14.2841 4.40991 14.2841C4.15802 14.2841 3.90677 14.3738 3.7305 14.5533Z" fill="white"/>
</g>
<mask id="mask6" mask-type="alpha" maskUnits="userSpaceOnUse" x="58" y="15" width="3" height="2">
<path fill-rule="evenodd" clip-rule="evenodd" d="M59.1634 15.0352C59.0993 15.048 59.0416 15.0678 58.9769 15.0928C58.9256 15.1121 58.8686 15.1441 58.8173 15.1768C58.766 15.2146 58.7147 15.2531 58.6699 15.2986C58.625 15.3428 58.5865 15.3941 58.5481 15.4454C58.516 15.4966 58.484 15.5543 58.4584 15.612C58.4385 15.6697 58.4199 15.7274 58.4071 15.7915C58.3936 15.8562 58.3872 15.9133 58.3872 15.978C58.3872 16.2337 58.4904 16.4773 58.6699 16.6568C58.7147 16.7016 58.766 16.7407 58.8173 16.7785C58.8686 16.8106 58.9256 16.8433 58.9769 16.8683C59.0416 16.8946 59.0993 16.9074 59.1634 16.9202C59.2211 16.9324 59.2852 16.9388 59.3493 16.9388C59.5992 16.9388 59.8492 16.8362 60.0287 16.6568C60.2081 16.4773 60.3107 16.2337 60.3107 15.978C60.3107 15.9133 60.3043 15.8562 60.2915 15.7915C60.278 15.7274 60.2594 15.6697 60.2331 15.612C60.2152 15.5543 60.1819 15.4966 60.1505 15.4454C60.112 15.3941 60.0729 15.3428 60.0287 15.2986C59.9838 15.2531 59.9325 15.2146 59.8806 15.1768C59.8293 15.1441 59.7717 15.1121 59.7146 15.0928C59.6569 15.0678 59.5992 15.048 59.5345 15.0352C59.4743 15.0223 59.4114 15.0166 59.3493 15.0166C59.2865 15.0166 59.2243 15.0223 59.1634 15.0352Z" fill="white"/>
</mask>
<g mask="url(#mask6)">
<path fill-rule="evenodd" clip-rule="evenodd" d="M59.1634 15.0352C59.0993 15.048 59.0416 15.0678 58.9769 15.0928C58.9256 15.1121 58.8686 15.1441 58.8173 15.1768C58.766 15.2146 58.7147 15.2531 58.6699 15.2986C58.625 15.3428 58.5865 15.3941 58.5481 15.4454C58.516 15.4966 58.484 15.5543 58.4584 15.612C58.4385 15.6697 58.4199 15.7274 58.4071 15.7915C58.3936 15.8562 58.3872 15.9133 58.3872 15.978C58.3872 16.2337 58.4904 16.4773 58.6699 16.6568C58.7147 16.7016 58.766 16.7407 58.8173 16.7785C58.8686 16.8106 58.9256 16.8433 58.9769 16.8683C59.0416 16.8946 59.0993 16.9074 59.1634 16.9202C59.2211 16.9324 59.2852 16.9388 59.3493 16.9388C59.5992 16.9388 59.8492 16.8362 60.0287 16.6568C60.2081 16.4773 60.3107 16.2337 60.3107 15.978C60.3107 15.9133 60.3043 15.8562 60.2915 15.7915C60.278 15.7274 60.2594 15.6697 60.2331 15.612C60.2152 15.5543 60.1819 15.4966 60.1505 15.4454C60.112 15.3941 60.0729 15.3428 60.0287 15.2986C59.9838 15.2531 59.9325 15.2146 59.8806 15.1768C59.8293 15.1441 59.7717 15.1121 59.7146 15.0928C59.6569 15.0678 59.5992 15.048 59.5345 15.0352C59.4743 15.0223 59.4114 15.0166 59.3493 15.0166C59.2865 15.0166 59.2243 15.0223 59.1634 15.0352Z" fill="white"/>
</g>
<mask id="mask7" mask-type="alpha" maskUnits="userSpaceOnUse" x="3" y="10" width="3" height="3">
<path fill-rule="evenodd" clip-rule="evenodd" d="M3.7305 10.8907C3.68564 10.9355 3.64718 10.9868 3.60808 11.0375C3.57668 11.0887 3.54463 11.1464 3.5254 11.2041C3.49976 11.2618 3.47989 11.3195 3.46771 11.3836C3.4549 11.4477 3.44849 11.5053 3.44849 11.5694C3.44849 11.8258 3.55104 12.0694 3.7305 12.2488C3.90933 12.429 4.15994 12.5309 4.40927 12.5309C4.65988 12.5309 4.90985 12.429 5.08932 12.2488C5.26815 12.0694 5.37134 11.8258 5.37134 11.5694C5.37134 11.5053 5.36493 11.4477 5.35147 11.3836C5.33929 11.3195 5.31942 11.2618 5.30148 11.2041C5.2752 11.1464 5.24315 11.0887 5.21046 11.0375C5.17264 10.9868 5.13419 10.9355 5.08932 10.8907C4.91306 10.7112 4.66309 10.6215 4.41248 10.6215C4.16122 10.6215 3.90997 10.7112 3.7305 10.8907Z" fill="white"/>
</mask>
<g mask="url(#mask7)">
<path fill-rule="evenodd" clip-rule="evenodd" d="M3.7305 10.8907C3.68564 10.9355 3.64718 10.9868 3.60808 11.0375C3.57668 11.0887 3.54463 11.1464 3.5254 11.2041C3.49976 11.2618 3.47989 11.3195 3.46771 11.3836C3.4549 11.4477 3.44849 11.5053 3.44849 11.5694C3.44849 11.8258 3.55104 12.0694 3.7305 12.2488C3.90933 12.429 4.15994 12.5309 4.40927 12.5309C4.65988 12.5309 4.90985 12.429 5.08932 12.2488C5.26815 12.0694 5.37134 11.8258 5.37134 11.5694C5.37134 11.5053 5.36493 11.4477 5.35147 11.3836C5.33929 11.3195 5.31942 11.2618 5.30148 11.2041C5.2752 11.1464 5.24315 11.0887 5.21046 11.0375C5.17264 10.9868 5.13419 10.9355 5.08932 10.8907C4.91306 10.7112 4.66309 10.6215 4.41248 10.6215C4.16122 10.6215 3.90997 10.7112 3.7305 10.8907Z" fill="white"/>
</g>
<mask id="mask8" mask-type="alpha" maskUnits="userSpaceOnUse" x="58" y="11" width="3" height="3">
<path fill-rule="evenodd" clip-rule="evenodd" d="M59.1634 11.3726C59.0993 11.386 59.0416 11.4046 58.9769 11.4309C58.9256 11.4501 58.8686 11.4822 58.8173 11.5142C58.766 11.5527 58.7147 11.5905 58.6699 11.6354C58.625 11.6809 58.5865 11.7321 58.5481 11.7834C58.516 11.8347 58.484 11.8917 58.4584 11.9501C58.4385 12.0077 58.4199 12.0648 58.4071 12.1295C58.3936 12.1936 58.3872 12.2513 58.3872 12.3154C58.3872 12.3795 58.3936 12.4429 58.4071 12.5006C58.4199 12.5647 58.4385 12.6224 58.4584 12.6865C58.484 12.7442 58.516 12.7955 58.5481 12.8467C58.5865 12.9044 58.625 12.9499 58.6699 12.9948C58.8493 13.1743 59.0929 13.2768 59.3493 13.2768C59.5992 13.2768 59.8492 13.1743 60.0287 12.9948C60.0729 12.9499 60.112 12.9044 60.1505 12.8467C60.1819 12.7955 60.2152 12.7442 60.2331 12.6865C60.2594 12.6224 60.278 12.5647 60.2915 12.5006C60.3043 12.4429 60.3107 12.3795 60.3107 12.3154C60.3107 12.2513 60.3043 12.1936 60.2915 12.1295C60.278 12.0648 60.2594 12.0077 60.2331 11.9501C60.2152 11.8917 60.1819 11.8347 60.1505 11.7834C60.112 11.7321 60.0729 11.6809 60.0287 11.6354C59.8486 11.4552 59.598 11.354 59.3467 11.354C59.2852 11.354 59.2236 11.3604 59.1634 11.3726Z" fill="white"/>
</mask>
<g mask="url(#mask8)">
<path fill-rule="evenodd" clip-rule="evenodd" d="M59.1634 11.3726C59.0993 11.386 59.0416 11.4046 58.9769 11.4309C58.9256 11.4501 58.8686 11.4822 58.8173 11.5142C58.766 11.5527 58.7147 11.5905 58.6699 11.6354C58.625 11.6809 58.5865 11.7321 58.5481 11.7834C58.516 11.8347 58.484 11.8917 58.4584 11.9501C58.4385 12.0077 58.4199 12.0648 58.4071 12.1295C58.3936 12.1936 58.3872 12.2513 58.3872 12.3154C58.3872 12.3795 58.3936 12.4429 58.4071 12.5006C58.4199 12.5647 58.4385 12.6224 58.4584 12.6865C58.484 12.7442 58.516 12.7955 58.5481 12.8467C58.5865 12.9044 58.625 12.9499 58.6699 12.9948C58.8493 13.1743 59.0929 13.2768 59.3493 13.2768C59.5992 13.2768 59.8492 13.1743 60.0287 12.9948C60.0729 12.9499 60.112 12.9044 60.1505 12.8467C60.1819 12.7955 60.2152 12.7442 60.2331 12.6865C60.2594 12.6224 60.278 12.5647 60.2915 12.5006C60.3043 12.4429 60.3107 12.3795 60.3107 12.3154C60.3107 12.2513 60.3043 12.1936 60.2915 12.1295C60.278 12.0648 60.2594 12.0077 60.2331 11.9501C60.2152 11.8917 60.1819 11.8347 60.1505 11.7834C60.112 11.7321 60.0729 11.6809 60.0287 11.6354C59.8486 11.4552 59.598 11.354 59.3467 11.354C59.2852 11.354 59.2236 11.3604 59.1634 11.3726Z" fill="white"/>
</g>
<mask id="mask9" mask-type="alpha" maskUnits="userSpaceOnUse" x="39" y="34" width="25" height="49">
<path fill-rule="evenodd" clip-rule="evenodd" d="M61.4705 34.3279L45.1035 50.7649C45.0541 50.803 45.0072 50.8459 44.9651 50.8954C44.1076 51.8914 43.6239 53.1544 43.5823 54.4682L40.8825 51.756C40.5299 51.4018 39.9582 51.4018 39.6062 51.756C39.2536 52.1101 39.2536 52.6842 39.6062 53.0384L57.8952 71.4068C57.8958 71.4074 57.8958 71.4074 57.8964 71.4074C57.897 71.4086 57.897 71.4098 57.8982 71.4104C60.5054 74.0018 61.9405 77.4579 61.9405 81.1413C61.9405 81.6417 62.3454 82.0484 62.843 82.0484C63.3413 82.0484 63.7462 81.6417 63.7462 81.1413V80.6844C63.7462 80.6349 63.739 80.5865 63.7318 80.5382C63.5819 76.5943 61.9772 72.914 59.1684 70.122C59.1678 70.1214 59.1672 70.1214 59.1666 70.1202L46.5229 57.4221C45.7852 56.6806 45.379 55.6956 45.379 54.6477C45.379 53.7279 45.7058 52.8401 46.2918 52.1361C46.2918 52.1355 46.2924 52.1355 46.2924 52.1355L62.7468 35.6096C63.0994 35.2555 63.0994 34.682 62.7468 34.3279C62.5705 34.1508 62.34 34.062 62.109 34.062C61.8779 34.062 61.6468 34.1508 61.4705 34.3279Z" fill="white"/>
</mask>
<g mask="url(#mask9)">
<path fill-rule="evenodd" clip-rule="evenodd" d="M61.4705 34.3279L45.1035 50.7649C45.0541 50.803 45.0072 50.8459 44.9651 50.8954C44.1076 51.8914 43.6239 53.1544 43.5823 54.4682L40.8825 51.756C40.5299 51.4018 39.9582 51.4018 39.6062 51.756C39.2536 52.1101 39.2536 52.6842 39.6062 53.0384L57.8952 71.4068C57.8958 71.4074 57.8958 71.4074 57.8964 71.4074C57.897 71.4086 57.897 71.4098 57.8982 71.4104C60.5054 74.0018 61.9405 77.4579 61.9405 81.1413C61.9405 81.6417 62.3454 82.0484 62.843 82.0484C63.3413 82.0484 63.7462 81.6417 63.7462 81.1413V80.6844C63.7462 80.6349 63.739 80.5865 63.7318 80.5382C63.5819 76.5943 61.9772 72.914 59.1684 70.122C59.1678 70.1214 59.1672 70.1214 59.1666 70.1202L46.5229 57.4221C45.7852 56.6806 45.379 55.6956 45.379 54.6477C45.379 53.7279 45.7058 52.8401 46.2918 52.1361C46.2918 52.1355 46.2924 52.1355 46.2924 52.1355L62.7468 35.6096C63.0994 35.2555 63.0994 34.682 62.7468 34.3279C62.5705 34.1508 62.34 34.062 62.109 34.062C61.8779 34.062 61.6468 34.1508 61.4705 34.3279Z" fill="white"/>
</g>
<mask id="mask10" mask-type="alpha" maskUnits="userSpaceOnUse" x="61" y="83" width="3" height="3">
<path fill-rule="evenodd" clip-rule="evenodd" d="M62.4598 83.5226C62.3957 83.5342 62.338 83.5525 62.2797 83.577C62.2226 83.5953 62.1649 83.6258 62.1137 83.6563C62.0624 83.6935 62.0111 83.7296 61.9663 83.7723C61.9214 83.815 61.8829 83.8639 61.8445 83.9133C61.8124 83.9615 61.781 84.0171 61.7611 84.072C61.7349 84.1269 61.7163 84.1819 61.7035 84.2423C61.69 84.2979 61.6836 84.3583 61.6836 84.4193C61.6836 84.6641 61.7868 84.8961 61.9663 85.067C62.056 85.1519 62.1585 85.2196 62.2797 85.2685C62.3957 85.3112 62.5175 85.335 62.6457 85.335C62.902 85.335 63.1456 85.2434 63.3251 85.067C63.5045 84.8961 63.6071 84.6641 63.6071 84.4193C63.6071 84.1819 63.5045 83.9438 63.3251 83.7723C63.1482 83.5995 62.8969 83.5068 62.6405 83.5068C62.5803 83.5068 62.5194 83.5116 62.4598 83.5226Z" fill="white"/>
</mask>
<g mask="url(#mask10)">
<path fill-rule="evenodd" clip-rule="evenodd" d="M62.4598 83.5226C62.3957 83.5342 62.338 83.5525 62.2797 83.577C62.2226 83.5953 62.1649 83.6258 62.1137 83.6563C62.0624 83.6935 62.0111 83.7296 61.9663 83.7723C61.9214 83.815 61.8829 83.8639 61.8445 83.9133C61.8124 83.9615 61.781 84.0171 61.7611 84.072C61.7349 84.1269 61.7163 84.1819 61.7035 84.2423C61.69 84.2979 61.6836 84.3583 61.6836 84.4193C61.6836 84.6641 61.7868 84.8961 61.9663 85.067C62.056 85.1519 62.1585 85.2196 62.2797 85.2685C62.3957 85.3112 62.5175 85.335 62.6457 85.335C62.902 85.335 63.1456 85.2434 63.3251 85.067C63.5045 84.8961 63.6071 84.6641 63.6071 84.4193C63.6071 84.1819 63.5045 83.9438 63.3251 83.7723C63.1482 83.5995 62.8969 83.5068 62.6405 83.5068C62.5803 83.5068 62.5194 83.5116 62.4598 83.5226Z" fill="white"/>
</g>
<mask id="mask11" mask-type="alpha" maskUnits="userSpaceOnUse" x="0" y="83" width="3" height="3">
<path fill-rule="evenodd" clip-rule="evenodd" d="M1.16678 83.4225C1.12128 83.4667 1.07641 83.5116 1.045 83.5635C1.01231 83.6206 0.980908 83.6725 0.95527 83.7302C0.929632 83.7879 0.916172 83.8513 0.903994 83.909C0.890534 83.9731 0.884766 84.0378 0.884766 84.1013C0.884766 84.2301 0.909763 84.3513 0.95527 84.4673C1.00655 84.5826 1.07641 84.691 1.16678 84.7813C1.25652 84.8711 1.35843 84.9416 1.4738 84.9858C1.58981 85.0371 1.71736 85.0627 1.84619 85.0627C2.10257 85.0627 2.33972 84.9602 2.5256 84.7813C2.61533 84.691 2.68584 84.5826 2.7307 84.4673C2.78198 84.3513 2.80698 84.2301 2.80698 84.1013C2.80698 84.0378 2.80057 83.9731 2.78839 83.909C2.77557 83.8513 2.7557 83.7879 2.7307 83.7302C2.70443 83.6725 2.67943 83.6206 2.64097 83.5635C2.60892 83.5116 2.56983 83.4667 2.5256 83.4225C2.48073 83.3776 2.42946 83.3328 2.37818 83.3001C2.32691 83.2687 2.26922 83.2366 2.21153 83.211C2.15449 83.1854 2.08975 83.1719 2.03207 83.1591C1.96925 83.1469 1.90644 83.1405 1.84427 83.1405C1.59173 83.1405 1.34625 83.2424 1.16678 83.4225Z" fill="white"/>
</mask>
<g mask="url(#mask11)">
<path fill-rule="evenodd" clip-rule="evenodd" d="M1.16678 83.4225C1.12128 83.4667 1.07641 83.5116 1.045 83.5635C1.01231 83.6206 0.980908 83.6725 0.95527 83.7302C0.929632 83.7879 0.916172 83.8513 0.903994 83.909C0.890534 83.9731 0.884766 84.0378 0.884766 84.1013C0.884766 84.2301 0.909763 84.3513 0.95527 84.4673C1.00655 84.5826 1.07641 84.691 1.16678 84.7813C1.25652 84.8711 1.35843 84.9416 1.4738 84.9858C1.58981 85.0371 1.71736 85.0627 1.84619 85.0627C2.10257 85.0627 2.33972 84.9602 2.5256 84.7813C2.61533 84.691 2.68584 84.5826 2.7307 84.4673C2.78198 84.3513 2.80698 84.2301 2.80698 84.1013C2.80698 84.0378 2.80057 83.9731 2.78839 83.909C2.77557 83.8513 2.7557 83.7879 2.7307 83.7302C2.70443 83.6725 2.67943 83.6206 2.64097 83.5635C2.60892 83.5116 2.56983 83.4667 2.5256 83.4225C2.48073 83.3776 2.42946 83.3328 2.37818 83.3001C2.32691 83.2687 2.26922 83.2366 2.21153 83.211C2.15449 83.1854 2.08975 83.1719 2.03207 83.1591C1.96925 83.1469 1.90644 83.1405 1.84427 83.1405C1.59173 83.1405 1.34625 83.2424 1.16678 83.4225Z" fill="white"/>
</g>
<mask id="mask12" mask-type="alpha" maskUnits="userSpaceOnUse" x="61" y="87" width="3" height="2">
<path fill-rule="evenodd" clip-rule="evenodd" d="M61.9663 87.4373C61.7868 87.6082 61.6836 87.8408 61.6836 88.0844C61.6836 88.3285 61.7868 88.5605 61.9663 88.732C62.056 88.8169 62.1585 88.884 62.2797 88.9329C62.3957 88.9762 62.5175 89 62.6457 89C62.902 89 63.1456 88.9091 63.3251 88.732C63.5045 88.5605 63.6071 88.3285 63.6071 88.0844C63.6071 87.8463 63.5045 87.6082 63.3251 87.4373C63.2802 87.3946 63.2347 87.3586 63.177 87.3213C63.1257 87.2908 63.0745 87.2609 63.011 87.242C62.9533 87.2176 62.8956 87.1999 62.8309 87.187C62.7706 87.1754 62.7098 87.1693 62.6482 87.1693C62.3976 87.1693 62.1464 87.2664 61.9663 87.4373Z" fill="white"/>
</mask>
<g mask="url(#mask12)">
<path fill-rule="evenodd" clip-rule="evenodd" d="M61.9663 87.4373C61.7868 87.6082 61.6836 87.8408 61.6836 88.0844C61.6836 88.3285 61.7868 88.5605 61.9663 88.732C62.056 88.8169 62.1585 88.884 62.2797 88.9329C62.3957 88.9762 62.5175 89 62.6457 89C62.902 89 63.1456 88.9091 63.3251 88.732C63.5045 88.5605 63.6071 88.3285 63.6071 88.0844C63.6071 87.8463 63.5045 87.6082 63.3251 87.4373C63.2802 87.3946 63.2347 87.3586 63.177 87.3213C63.1257 87.2908 63.0745 87.2609 63.011 87.242C62.9533 87.2176 62.8956 87.1999 62.8309 87.187C62.7706 87.1754 62.7098 87.1693 62.6482 87.1693C62.3976 87.1693 62.1464 87.2664 61.9663 87.4373Z" fill="white"/>
</g>
<mask id="mask13" mask-type="alpha" maskUnits="userSpaceOnUse" x="0" y="86" width="3" height="3">
<path fill-rule="evenodd" clip-rule="evenodd" d="M1.16678 87.0851C1.12128 87.1299 1.07641 87.1748 1.045 87.2261C1.01231 87.2838 0.980908 87.335 0.95527 87.3921C0.929632 87.4498 0.916172 87.5145 0.903994 87.5722C0.890534 87.6356 0.884766 87.7004 0.884766 87.7638C0.884766 87.892 0.909763 88.0138 0.95527 88.1298C1.00655 88.2445 1.07641 88.3535 1.16678 88.4439C1.25652 88.533 1.35843 88.6041 1.4738 88.6483C1.58981 88.6996 1.71736 88.7259 1.84619 88.7259C2.10257 88.7259 2.33972 88.6233 2.5256 88.4439C2.61533 88.3535 2.68584 88.2445 2.7307 88.1298C2.78198 88.0138 2.80698 87.892 2.80698 87.7638C2.80698 87.7004 2.80057 87.6356 2.78839 87.5722C2.77557 87.5145 2.7557 87.4498 2.7307 87.3921C2.70443 87.335 2.67943 87.2838 2.64097 87.2261C2.60892 87.1748 2.56983 87.1299 2.5256 87.0851C2.48073 87.0396 2.42946 86.9947 2.37818 86.9626C2.32691 86.9312 2.26922 86.8992 2.21153 86.8736C2.15449 86.8473 2.08975 86.8351 2.03207 86.8223C1.96925 86.8095 1.90644 86.803 1.84427 86.803C1.59173 86.803 1.34625 86.905 1.16678 87.0851Z" fill="white"/>
</mask>
<g mask="url(#mask13)">
<path fill-rule="evenodd" clip-rule="evenodd" d="M1.16678 87.0851C1.12128 87.1299 1.07641 87.1748 1.045 87.2261C1.01231 87.2838 0.980908 87.335 0.95527 87.3921C0.929632 87.4498 0.916172 87.5145 0.903994 87.5722C0.890534 87.6356 0.884766 87.7004 0.884766 87.7638C0.884766 87.892 0.909763 88.0138 0.95527 88.1298C1.00655 88.2445 1.07641 88.3535 1.16678 88.4439C1.25652 88.533 1.35843 88.6041 1.4738 88.6483C1.58981 88.6996 1.71736 88.7259 1.84619 88.7259C2.10257 88.7259 2.33972 88.6233 2.5256 88.4439C2.61533 88.3535 2.68584 88.2445 2.7307 88.1298C2.78198 88.0138 2.80698 87.892 2.80698 87.7638C2.80698 87.7004 2.80057 87.6356 2.78839 87.5722C2.77557 87.5145 2.7557 87.4498 2.7307 87.3921C2.70443 87.335 2.67943 87.2838 2.64097 87.2261C2.60892 87.1748 2.56983 87.1299 2.5256 87.0851C2.48073 87.0396 2.42946 86.9947 2.37818 86.9626C2.32691 86.9312 2.26922 86.8992 2.21153 86.8736C2.15449 86.8473 2.08975 86.8351 2.03207 86.8223C1.96925 86.8095 1.90644 86.803 1.84427 86.803C1.59173 86.803 1.34625 86.905 1.16678 87.0851Z" fill="white"/>
</g>
<mask id="mask14" mask-type="alpha" maskUnits="userSpaceOnUse" x="10" y="36" width="11" height="12">
<path fill-rule="evenodd" clip-rule="evenodd" d="M10.2203 36.8046C9.98159 37.0439 9.98159 37.4297 10.2203 37.6684L19.6136 47.0604C19.7326 47.1801 19.8889 47.2399 20.0445 47.2399C20.2014 47.2399 20.3571 47.1801 20.4767 47.0604C20.7148 46.8224 20.7148 46.436 20.4767 46.1979L11.0834 36.8046C10.9638 36.6856 10.8075 36.6258 10.6518 36.6258C10.4956 36.6258 10.3393 36.6856 10.2203 36.8046Z" fill="white"/>
</mask>
<g mask="url(#mask14)">
<path fill-rule="evenodd" clip-rule="evenodd" d="M10.2203 36.8046C9.98159 37.0439 9.98159 37.4297 10.2203 37.6684L19.6136 47.0604C19.7326 47.1801 19.8889 47.2399 20.0445 47.2399C20.2014 47.2399 20.3571 47.1801 20.4767 47.0604C20.7148 46.8224 20.7148 46.436 20.4767 46.1979L11.0834 36.8046C10.9638 36.6856 10.8075 36.6258 10.6518 36.6258C10.4956 36.6258 10.3393 36.6856 10.2203 36.8046Z" fill="white"/>
</g>
<mask id="mask15" mask-type="alpha" maskUnits="userSpaceOnUse" x="43" y="36" width="12" height="11">
<path fill-rule="evenodd" clip-rule="evenodd" d="M53.3628 36.4384L43.9158 45.886C43.6771 46.124 43.6771 46.5104 43.9158 46.7485C44.0349 46.8682 44.1911 46.928 44.3474 46.928C44.5037 46.928 44.6593 46.8682 44.779 46.7485L54.226 37.3015C54.4653 37.0628 54.4653 36.677 54.226 36.4384C54.1069 36.3193 53.9507 36.2595 53.7944 36.2595C53.6381 36.2595 53.4819 36.3193 53.3628 36.4384Z" fill="white"/>
</mask>
<g mask="url(#mask15)">
<path fill-rule="evenodd" clip-rule="evenodd" d="M53.3628 36.4384L43.9158 45.886C43.6771 46.124 43.6771 46.5104 43.9158 46.7485C44.0349 46.8682 44.1911 46.928 44.3474 46.928C44.5037 46.928 44.6593 46.8682 44.779 46.7485L54.226 37.3015C54.4653 37.0628 54.4653 36.677 54.226 36.4384C54.1069 36.3193 53.9507 36.2595 53.7944 36.2595C53.6381 36.2595 53.4819 36.3193 53.3628 36.4384Z" fill="white"/>
</g>
<mask id="mask16" mask-type="alpha" maskUnits="userSpaceOnUse" x="17" y="57" width="9" height="8">
<path fill-rule="evenodd" clip-rule="evenodd" d="M24.2186 57.6758L17.9057 63.9875C17.675 64.2188 17.675 64.5933 17.9057 64.8241C18.0217 64.9395 18.1726 64.9974 18.324 64.9974C18.4755 64.9974 18.6269 64.9395 18.7423 64.8241L25.0552 58.5124C25.2859 58.2811 25.2859 57.9066 25.0552 57.6758C24.9392 57.5598 24.7878 57.5025 24.6369 57.5025C24.4854 57.5025 24.334 57.5598 24.2186 57.6758Z" fill="white"/>
</mask>
<g mask="url(#mask16)">
<path fill-rule="evenodd" clip-rule="evenodd" d="M24.2186 57.6758L17.9057 63.9875C17.675 64.2188 17.675 64.5933 17.9057 64.8241C18.0217 64.9395 18.1726 64.9974 18.324 64.9974C18.4755 64.9974 18.6269 64.9395 18.7423 64.8241L25.0552 58.5124C25.2859 58.2811 25.2859 57.9066 25.0552 57.6758C24.9392 57.5598 24.7878 57.5025 24.6369 57.5025C24.4854 57.5025 24.334 57.5598 24.2186 57.6758Z" fill="white"/>
</g>
<mask id="mask17" mask-type="alpha" maskUnits="userSpaceOnUse" x="38" y="57" width="9" height="8">
<path fill-rule="evenodd" clip-rule="evenodd" d="M39.1486 57.6758C38.9179 57.9066 38.9179 58.2811 39.1486 58.5124L45.4615 64.8241C45.5769 64.9395 45.7284 64.9974 45.8792 64.9974C46.0313 64.9974 46.1821 64.9395 46.2981 64.8241C46.5288 64.5933 46.5288 64.2188 46.2981 63.9875L39.9852 57.6758C39.8699 57.5598 39.7184 57.5025 39.5669 57.5025C39.4155 57.5025 39.264 57.5598 39.1486 57.6758Z" fill="white"/>
</mask>
<g mask="url(#mask17)">
<path fill-rule="evenodd" clip-rule="evenodd" d="M39.1486 57.6758C38.9179 57.9066 38.9179 58.2811 39.1486 58.5124L45.4615 64.8241C45.5769 64.9395 45.7284 64.9974 45.8792 64.9974C46.0313 64.9974 46.1821 64.9395 46.2981 64.8241C46.5288 64.5933 46.5288 64.2188 46.2981 63.9875L39.9852 57.6758C39.8699 57.5598 39.7184 57.5025 39.5669 57.5025C39.4155 57.5025 39.264 57.5598 39.1486 57.6758Z" fill="white"/>
</g>
</svg>
